<svg width="22" height="22" viewBox="0 0 22 22" fill="none" xmlns="http://www.w3.org/2000/svg">
<circle cx="11" cy="11" r="10.5" stroke="#666666"/>
<path d="M11.872 6.888C11.6587 7.10133 11.4027 7.208 11.104 7.208C10.8053 7.208 10.544 7.10133 10.32 6.888C10.1067 6.664 10 6.40267 10 6.104C10 5.80533 10.1067 5.54933 10.32 5.336C10.5333 5.112 10.7947 5 11.104 5C11.4133 5 11.6747 5.112 11.888 5.336C12.1013 5.54933 12.208 5.80533 12.208 6.104C12.208 6.40267 12.096 6.664 11.872 6.888ZM10.24 16.408V8.408H11.968V16.408H10.24Z" fill="#666666"/>
</svg>
