<svg width="30" height="29" viewBox="0 0 30 29" fill="none" xmlns="http://www.w3.org/2000/svg">
<path d="M28.9224 13.0971C28.7357 12.9111 28.5448 12.7281 28.3432 12.5596C27.6725 11.9981 27.356 10.8321 28.0529 9.94976C28.2552 9.69381 28.3198 9.32339 28.4468 9.00546C28.3759 8.16103 27.9067 7.46099 27.1572 7.18243C26.8684 7.07523 26.5731 6.98699 26.2829 6.8849C25.4844 6.60489 25.0011 5.95735 24.9414 5.09688C24.9216 4.81832 24.9024 4.53901 24.874 4.26191C24.8498 3.99471 24.7695 3.7361 24.6385 3.50393C24.5075 3.27177 24.329 3.0716 24.1153 2.91725C23.5099 2.45858 22.8335 2.48848 22.1429 2.61318C21.0528 2.81079 20.309 2.44545 19.7845 1.45737C19.705 1.30788 19.6262 1.15839 19.5432 1.01108C18.969 -0.0156454 17.7419 -0.308059 16.7865 0.354794C16.5814 0.500636 16.387 0.658173 16.1826 0.801828C15.6999 1.14018 15.1612 1.31225 14.6041 1.10662C14.2258 0.966607 13.8702 0.723782 13.5459 0.471475C12.504 -0.339408 11.2314 -0.0848977 10.5884 1.08913C10.4784 1.2904 10.3755 1.49529 10.2612 1.69436C9.983 2.18148 9.57915 2.541 9.03336 2.58694C8.55324 2.61481 8.07163 2.57903 7.60041 2.48047C6.36191 2.25223 5.33278 3.03392 5.28594 4.329C5.22774 5.93326 4.77778 6.60487 3.20074 6.95854C2.08077 7.21011 1.52362 8.38706 1.93527 9.49109C2.03179 9.75142 2.14819 10.0059 2.24046 10.2677C2.53713 11.0932 2.34903 11.8603 1.7124 12.4488C1.51012 12.6362 1.30218 12.8134 1.1063 13.011C0.283 13.8255 0.300728 15.0528 1.1439 15.8505C1.36179 16.0562 1.59531 16.2458 1.79829 16.466C2.33273 17.0494 2.48815 17.7224 2.21561 18.4823C2.10915 18.7783 1.97288 19.0657 1.86642 19.3573C1.77512 19.5954 1.73214 19.8502 1.74011 20.106C1.74807 20.3618 1.80682 20.6132 1.91276 20.8448C2.0187 21.0764 2.16958 21.2834 2.35615 21.4529C2.54273 21.6225 2.76106 21.7511 2.99774 21.8308C3.29938 21.9395 3.60741 22.0262 3.90621 22.1407C4.62234 22.4164 5.04179 22.9494 5.14754 23.7282C5.18587 24.0148 5.16599 24.3116 5.17806 24.6033C5.21922 25.5513 5.95877 26.3687 6.88143 26.4402C7.21149 26.4603 7.54271 26.4418 7.86867 26.3848C9.03264 26.1981 9.74097 26.5423 10.3059 27.5974C10.3769 27.725 10.4401 27.8548 10.5103 27.981C11.0724 28.9975 12.2776 29.3045 13.2336 28.6693C13.4423 28.5315 13.6367 28.3711 13.839 28.2238C14.6254 27.6543 15.4806 27.6784 16.2308 28.288C16.3728 28.401 16.5055 28.5199 16.6496 28.6256C17.5275 29.2732 18.7632 29.0544 19.3352 28.1356C19.4729 27.9168 19.5481 27.6521 19.6482 27.4064C19.8952 26.7814 20.3423 26.3607 20.9839 26.2951C21.4651 26.2462 21.9691 26.3249 22.4503 26.4176C23.4886 26.6174 24.4737 25.9705 24.6703 24.8957C24.7356 24.5391 24.7463 24.1723 24.7839 23.8099C24.8705 22.9611 25.368 22.3464 26.1679 22.105C26.3943 22.0372 26.6264 21.9883 26.8528 21.9198C27.9252 21.5975 28.4653 20.4869 28.0735 19.4091C27.9742 19.1364 27.8521 18.8724 27.7541 18.599C27.466 17.7968 27.6569 17.021 28.2758 16.4478C28.4958 16.2443 28.7222 16.0482 28.933 15.8352C29.1131 15.6581 29.2563 15.4452 29.3538 15.2094C29.4512 14.9736 29.501 14.7199 29.5 14.4638C29.499 14.2076 29.4473 13.9544 29.348 13.7194C29.2487 13.4844 29.1039 13.2727 28.9224 13.0971ZM21.6596 16.1918C21.8818 16.921 21.7164 17.5241 21.1827 18.0484C21.0879 18.1566 21.0371 18.2981 21.0407 18.4436C21.0854 19.2457 20.8093 19.8291 20.0762 20.1332C19.5928 20.3345 19.057 20.4978 18.541 20.5058C17.0889 20.5343 15.6354 20.4876 14.1825 20.4468C13.9129 20.445 13.6487 20.3681 13.4183 20.2243C13.1878 20.0805 12.9996 19.8751 12.8738 19.63C12.5792 19.0591 12.3918 18.4298 12.1704 17.8209C12.1244 17.6594 12.0914 17.4942 12.0718 17.3272L12.0157 17.3374C12.0157 18.0163 12.0192 18.6959 12.0157 19.3756C12.0166 19.5817 11.9993 19.7874 11.9639 19.9903C11.8709 20.4839 11.5969 20.7275 11.1037 20.7385C10.4649 20.753 9.82614 20.7516 9.18737 20.7385C8.50815 20.7275 8.00779 20.2513 7.99998 19.552C7.98153 17.8758 7.98153 16.1986 7.99998 14.5205C8.00637 13.8489 8.45422 13.3632 9.1086 13.3275C9.78072 13.2903 10.4571 13.3027 11.1292 13.3275C11.3549 13.3362 11.5771 13.4522 11.7297 13.4974C13.2237 11.8735 14.311 9.98917 15.0491 7.89779C15.1612 7.57985 15.191 7.21889 15.1996 6.87689C15.228 5.96975 15.6254 5.71526 16.4104 6.13237C16.8916 6.38759 17.1861 6.81343 17.1911 7.35013C17.1891 7.94111 17.1323 8.53056 17.0215 9.11046C16.9228 9.66903 16.7333 10.2108 16.6077 10.7657C16.5631 10.9916 16.5478 11.2227 16.5623 11.4527C16.5772 11.8122 16.6921 11.8866 17.0435 11.8341C17.7667 11.7261 18.4892 11.5723 19.2167 11.5373C19.7464 11.5114 20.2765 11.5754 20.7859 11.7269C21.6199 11.9792 21.9031 12.7004 21.6185 13.5499C21.5996 13.6234 21.5954 13.7 21.6062 13.7752C21.6169 13.8504 21.6423 13.9226 21.6809 13.9874C22.1259 14.6437 22.1351 15.141 21.7065 15.7988C21.6737 15.8577 21.6526 15.9227 21.6446 15.9901C21.6365 16.0574 21.6416 16.1258 21.6596 16.1911V16.1918Z" fill="#0066FF"/>
</svg>
