<svg width="26" height="26" viewBox="0 0 26 26" fill="none" xmlns="http://www.w3.org/2000/svg">
<path d="M25.9938 2.54898C25.9938 1.14116 24.8345 0.00214606 23.4232 0.00160954C16.4691 -0.000536514 9.51539 -0.000536514 2.56204 0.00160954C2.33887 0.00211044 2.11691 0.0342784 1.90277 0.0971237C0.748347 0.430835 0.0252243 1.41425 0.0252243 2.66058C0.0159259 8.77469 0.00751017 14.8888 0 21.0029C0 22.6462 0 24.2896 0 26C0.107288 25.9002 0.170055 25.8423 0.231209 25.7811C1.818 24.1952 3.40355 22.6078 4.98784 21.019C5.05216 20.948 5.13126 20.892 5.2196 20.8549C5.30794 20.8178 5.40333 20.8006 5.49906 20.8044C9.414 20.8112 13.3288 20.8128 17.2434 20.8092C19.299 20.8092 21.3547 20.8157 23.4124 20.8092C23.7507 20.8106 24.086 20.7454 24.399 20.6172C24.7121 20.4889 24.9968 20.3003 25.2369 20.062C25.477 19.8237 25.6678 19.5404 25.7984 19.2283C25.929 18.9162 25.9969 18.5814 25.9981 18.2431C26.0017 13.0096 26.0002 7.7782 25.9938 2.54898ZM15.5986 15.3818C15.5986 15.5562 15.5547 15.6077 15.3766 15.6077C12.061 15.6024 8.74543 15.6024 5.42987 15.6077C5.23031 15.6077 5.19597 15.5364 5.19758 15.3599C5.20617 14.6538 5.20831 13.9478 5.19758 13.2417C5.19437 13.0411 5.25123 12.9869 5.45186 12.9879C6.37024 12.9922 7.2888 12.994 8.20755 12.9933H11.6027C12.8504 12.9933 14.0977 12.9933 15.3449 12.9885C15.5396 12.9885 15.6051 13.0287 15.6008 13.2369C15.5858 13.9515 15.589 14.6667 15.5986 15.3818ZM20.5452 11.7003C18.0339 11.6942 15.5232 11.6928 13.013 11.696C10.5028 11.6992 7.99209 11.7008 5.48083 11.7008C5.26625 11.7008 5.18954 11.6595 5.1949 11.4272C5.21153 10.7394 5.2067 10.0511 5.19758 9.36325C5.1949 9.17655 5.22602 9.10143 5.44113 9.10196C10.4805 9.1084 15.5196 9.1084 20.5586 9.10196C20.741 9.10196 20.8037 9.14273 20.8005 9.33588C20.7887 10.0414 20.7871 10.748 20.8005 11.4535C20.8053 11.6638 20.7372 11.7019 20.5452 11.7019V11.7003ZM20.5355 7.79502C18.025 7.78751 15.5144 7.79018 13.0044 7.79018C10.4944 7.79018 7.98332 7.78697 5.47277 7.79502C5.24747 7.79502 5.19114 7.73332 5.19544 7.51228C5.21046 6.81481 5.20617 6.11734 5.19544 5.41988C5.19275 5.24443 5.24371 5.19615 5.42128 5.19615C10.4692 5.2008 15.5169 5.2008 20.5645 5.19615C20.7581 5.19615 20.8005 5.25571 20.7978 5.43758C20.7876 6.13505 20.785 6.83252 20.7978 7.52999C20.8053 7.74137 20.7458 7.79556 20.5355 7.79502Z" fill="#FFAA28"/>
</svg>
