<svg width="18" height="11" viewBox="0 0 18 11" fill="none" xmlns="http://www.w3.org/2000/svg">
<path d="M18 9.75188C17.3459 9.79665 16.6988 9.77315 16.0348 9.77091C16.0503 9.69816 16.0607 9.64467 16.0735 9.59184C16.2728 8.76934 16.4722 7.94676 16.6718 7.1241C16.6849 7.06994 16.7028 7.02226 16.6421 6.9757C16.2822 6.69905 16.3695 6.08262 16.838 5.88139C16.9624 5.82812 16.9905 5.76432 16.9883 5.64234C16.9804 5.22847 16.9842 4.81416 16.9813 4.4003C16.9813 4.33046 16.9694 4.26085 16.9606 4.16617C16.8482 4.21474 16.76 4.25168 16.6723 4.2913C14.181 5.41448 11.6895 6.53759 9.19793 7.66063C9.04498 7.72957 8.88799 7.83768 8.73256 7.83812C8.58096 7.83812 8.42756 7.72755 8.27799 7.65906C5.64709 6.4629 3.01634 5.26601 0.385747 4.06836C0.264512 4.0133 0.145078 3.95398 0 3.8846C0.298703 3.74672 0.568838 3.61935 0.840999 3.49669C3.35298 2.36411 5.86467 1.23003 8.37605 0.0944601C8.64236 -0.0266325 8.85627 -0.0346894 9.12911 0.0899846C11.884 1.34821 14.6431 2.59779 17.4064 3.83871C17.4395 3.85371 17.4712 3.87161 17.5232 3.89825C17.4177 3.94659 17.3272 3.98017 17.246 4.02874C17.2096 4.05112 17.1682 4.10193 17.168 4.14066C17.1628 4.66666 17.1664 5.19266 17.1624 5.71867C17.1624 5.80439 17.2143 5.8223 17.2724 5.8496C17.616 6.01099 17.7672 6.31495 17.6599 6.66748C17.6255 6.7794 17.5474 6.88684 17.4678 6.97525C17.3963 7.05359 17.3779 7.11739 17.4021 7.22147C17.5985 8.0295 17.7879 8.83932 17.9793 9.64847C17.9838 9.67354 17.9888 9.69883 18 9.75188Z" fill="#AEAEAE"/>
<path d="M13.1946 6.73945C13.1924 7.27261 13.1922 7.80578 13.187 8.33894C13.185 8.52696 13.099 8.67984 12.9711 8.81683C12.5495 9.26717 12.0286 9.56531 11.4584 9.77728C9.50155 10.5047 7.56493 10.4512 5.64856 9.6168C5.27968 9.45542 4.93487 9.24748 4.65078 8.95896C4.5183 8.82466 4.41236 8.6635 4.2981 8.5113C4.27695 8.48094 4.26528 8.44504 4.26458 8.40811C4.26008 7.78138 4.25708 7.15465 4.25558 6.52793C4.25776 6.50121 4.26129 6.47461 4.26616 6.44824C4.35455 6.48652 4.42945 6.51786 4.50345 6.55098C5.80248 7.13085 7.10166 7.71073 8.40099 8.2906C8.75502 8.44728 8.75772 8.44482 9.10073 8.2906C10.4086 7.70267 11.7162 7.11414 13.0235 6.52502C13.0734 6.50264 13.1238 6.48025 13.1946 6.44981C13.1946 6.56217 13.1949 6.6517 13.1946 6.73945Z" fill="#AEAEAE"/>
</svg>
