<svg width="27" height="27" viewBox="0 0 27 27" fill="none" xmlns="http://www.w3.org/2000/svg">
<path d="M19.9232 13.0138C19.3574 13.5622 18.7801 14.1003 18.2501 14.6806C18.0859 14.8793 18.004 15.1329 18.021 15.3897C18.1055 16.1549 18.2514 16.901 18.3858 17.6535C18.492 18.2389 18.4063 18.7643 17.9096 19.1431C17.4129 19.5219 16.8497 19.5091 16.2915 19.2107C15.6348 18.86 14.9512 18.5539 14.3124 18.1738C13.9437 17.9545 13.6621 18.0004 13.3152 18.193C12.6086 18.5858 11.8955 18.976 11.1569 19.3C10.2032 19.7196 9.22899 19.0653 9.23667 17.9825C9.36468 17.174 9.53495 16.2966 9.63224 15.4115C9.64756 15.1333 9.55602 14.8597 9.37621 14.6462C8.86416 14.0774 8.3009 13.5558 7.74916 13.0252C7.31648 12.6082 7.10909 12.1325 7.29471 11.5343C7.49569 10.9081 7.97061 10.6505 8.59147 10.5664C9.35059 10.4643 10.1136 10.3636 10.8624 10.2054C11.1116 10.1391 11.3265 9.98149 11.4641 9.76417C11.8571 9.06017 12.2002 8.32684 12.5458 7.59607C12.6515 7.34824 12.8308 7.13864 13.0597 6.99544C13.2886 6.85224 13.556 6.78235 13.826 6.79517C14.0949 6.77958 14.3622 6.847 14.5913 6.98828C14.8204 7.12956 15.0002 7.33781 15.1061 7.58461C15.453 8.31411 15.7935 9.04871 16.184 9.75271C16.3181 9.97269 16.5322 10.1326 16.7818 10.1991C17.5499 10.3598 18.3359 10.4618 19.1168 10.5689C19.7184 10.6505 20.1575 10.935 20.361 11.5165C20.5646 12.0981 20.3546 12.5967 19.9232 13.0138Z" fill="#6808FE"/>
<circle cx="13.5" cy="13.5" r="12" stroke="#6808FE" stroke-width="3"/>
</svg>
