<?xml version="1.0" encoding="utf-8"?>
<!-- Svg Vector Icons : http://www.onlinewebfonts.com/icon -->
<!DOCTYPE svg PUBLIC "-//W3C//DTD SVG 1.1//EN" "http://www.w3.org/Graphics/SVG/1.1/DTD/svg11.dtd">
<svg version="1.1" xmlns="http://www.w3.org/2000/svg" xmlns:xlink="http://www.w3.org/1999/xlink" x="0px" y="0px" viewBox="0 0 256 256" enable-background="new 0 0 256 256" xml:space="preserve">
<metadata> Svg Vector Icons : http://www.onlinewebfonts.com/icon </metadata>
<g><g><path fill="#000000" d="M236.7,82.1c-5.9-14-14.4-26.7-25.3-37.5c-10.8-10.8-23.5-19.3-37.5-25.3c-14.5-6.2-30-9.3-45.9-9.3s-31.4,3.1-45.9,9.3c-14,5.9-26.7,14.4-37.5,25.3C33.7,55.4,25.2,68,19.3,82.1c-6.1,14.5-9.3,30-9.3,45.9c0,15.9,3.1,31.4,9.3,45.9c5.9,14,14.4,26.7,25.3,37.5c10.8,10.8,23.5,19.3,37.5,25.3c14.5,6.2,30,9.3,45.9,9.3s31.4-3.1,45.9-9.3c14-5.9,26.7-14.4,37.5-25.3c10.8-10.8,19.3-23.5,25.3-37.5c6.1-14.5,9.3-30,9.3-45.9C246,112.1,242.9,96.6,236.7,82.1z M180.2,96.8v77.8c0,2.4-0.9,2.3-1.9,2.3h-14.4c-1.1,0-1.9,0-1.9-2.3V96.8c0-2.4,0.9-2.3,1.9-2.3h14.4C179.3,94.5,180.2,94.5,180.2,96.8z M154.8,84.1h-13.4l17.6-14.9l15.4,14.9h-13.3c-13.4,59.4-90.6,52.8-90.6,52.8C136.7,131.5,151.7,95.1,154.8,84.1z M152.1,127v48.1c0,1.5-0.9,1.9-1.9,1.9h-14.4c-1.1,0-1.9-0.4-1.9-1.9V127c0-1.5,0.9-1.9,1.9-1.9h14.3C151.2,125.2,152.1,125.6,152.1,127z M122.4,139.4v35.6c0,1.1-0.9,2-1.9,2h-14.4c-1.1,0-1.9-0.9-1.9-2v-35.6c0-1.1,0.9-2,1.9-2h14.4C121.5,137.3,122.4,138.2,122.4,139.4z M94.8,152.6v23.1c0,0.7-0.9,1.3-1.9,1.3H78.5c-1.1,0-1.9-0.6-1.9-1.3v-23.1c0-0.7,0.9-1.3,1.9-1.3h14.4C93.9,151.2,94.8,151.8,94.8,152.6z M185.7,185.6c0,0.7-1,1.2-2.2,1.2H72.6c-1.2,0-2.2-0.6-2.2-1.2v-3.3c0-0.7,1-1.2,2.2-1.2h110.9c1.2,0,2.2,0.6,2.2,1.2L185.7,185.6L185.7,185.6z"/></g></g>
</svg>