<svg width="14" height="14" viewBox="0 0 14 14" fill="none" xmlns="http://www.w3.org/2000/svg">
<path d="M13.3106 7.72593C13.2259 7.57102 13.1399 7.41638 13.0621 7.25791C13.0217 7.18098 13.0009 7.09523 13.0015 7.00828C13.0021 6.92133 13.0241 6.83588 13.0656 6.75955C13.1745 6.55135 13.2978 6.34971 13.4104 6.14261C13.5212 5.94015 13.6461 5.74234 13.7308 5.52922C13.9322 5.02321 13.801 4.61665 13.3356 4.33687C13.0814 4.18387 12.7997 4.07676 12.5297 3.94972C12.4521 3.9131 12.3746 3.87594 12.2945 3.84507C11.9301 3.70436 11.772 3.42704 11.7434 3.04753C11.7162 2.70382 11.6852 2.35956 11.6302 2.01939C11.5703 1.6489 11.3961 1.33633 11.0077 1.23797C10.8054 1.19132 10.5962 1.18344 10.391 1.21475C10.0562 1.26147 9.72664 1.34699 9.39623 1.42185C9.10065 1.48879 8.85026 1.42185 8.64831 1.19043C8.48501 1.00273 8.31899 0.815567 8.15569 0.627043C7.91836 0.353819 7.66116 0.107924 7.29536 0.0174866H7.05041C6.65304 0.122951 6.38551 0.404917 6.12831 0.700545C6.00338 0.844534 5.87383 0.984424 5.75217 1.13087C5.51375 1.41748 5.22008 1.49152 4.863 1.40218C4.51776 1.31175 4.16809 1.23925 3.81542 1.18497C3.25094 1.10492 2.83343 1.3907 2.71504 1.95272C2.63775 2.31966 2.60617 2.6978 2.57732 3.07294C2.55011 3.43113 2.39334 3.67759 2.05748 3.81392C1.76871 3.93114 1.48103 4.05381 1.2007 4.18988C0.493062 4.53277 0.32976 5.03222 0.695826 5.72894C0.798978 5.92539 0.917916 6.11364 1.03005 6.30545C1.0687 6.37211 1.10571 6.44015 1.14817 6.50435C1.35882 6.82321 1.35339 7.13604 1.14545 7.4579C0.980787 7.71282 0.823474 7.97402 0.682763 8.24342C0.60057 8.39968 0.543353 8.56795 0.513202 8.74205C0.445977 9.15626 0.640302 9.45844 0.986228 9.65762C1.22437 9.79423 1.4813 9.89888 1.73088 10.0164C1.82886 10.0625 1.92739 10.1087 2.02836 10.1481C2.39334 10.2904 2.54548 10.571 2.5746 10.9492C2.59937 11.2838 2.62632 11.6202 2.68347 11.9502C2.79724 12.6008 3.23026 12.8997 3.87829 12.7868C4.22068 12.7273 4.56061 12.6502 4.89974 12.5737C5.21001 12.5032 5.47129 12.5716 5.68167 12.8175C5.85886 13.0243 6.03196 13.2349 6.22057 13.4306C6.36128 13.5765 6.51097 13.7205 6.6789 13.8314C6.98781 14.036 7.32149 14.0338 7.62087 13.8185C7.82799 13.6694 8.00545 13.4767 8.18644 13.2937C8.35845 13.1196 8.51304 12.9297 8.68315 12.753C8.85325 12.5762 9.0552 12.521 9.29117 12.5726C9.6224 12.6451 9.95254 12.7218 10.2854 12.7847C10.4316 12.8148 10.5811 12.8257 10.7301 12.8169C11.2383 12.7767 11.5417 12.4797 11.6315 11.9246C11.6835 11.5972 11.719 11.2675 11.738 10.9366C11.7606 10.559 11.9345 10.3123 12.2823 10.1699C12.6127 10.0349 12.9404 9.89069 13.2583 9.72921C13.5345 9.58905 13.7373 9.37402 13.7947 9.04997C13.8297 8.84661 13.7978 8.63736 13.7038 8.4538C13.5849 8.20599 13.4423 7.96856 13.3106 7.72593ZM9.91444 5.65873C8.86368 6.71756 7.81275 7.77612 6.76164 8.8344C6.44619 9.15189 6.13701 9.1508 5.82103 8.8344C5.32187 8.33331 4.8229 7.8324 4.3241 7.33168C4.29171 7.30438 4.25648 7.28065 4.21904 7.26091L5.02112 6.46255L6.28561 7.73932L9.22993 4.78305L10.0075 5.559C9.97921 5.58796 9.94791 5.62458 9.91416 5.65873H9.91444Z" fill="#00A3FF"/>
</svg>
