<svg width="70" height="69" viewBox="0 0 70 69" fill="none" xmlns="http://www.w3.org/2000/svg">
<g filter="url(#filter0_d_1_139)">
<rect x="14.87" y="10" width="40.29" height="40.2856" rx="20" fill="black" shape-rendering="crispEdges"/>
<g clip-path="url(#clip0_1_139)">
<path d="M36.9403 28.6211C36.9462 28.6111 36.9541 28.6024 36.9635 28.5953C36.9614 28.5901 36.9614 28.5844 36.9635 28.5792C36.9681 28.5693 36.9749 28.5605 36.9833 28.5534L44.2747 20.2526L44.2978 20.2268C44.2984 20.2182 44.2984 20.2095 44.2978 20.2009C44.2978 20.2009 44.2978 20.2009 44.2978 20.1784C44.2978 20.1558 44.1854 20.1428 44.116 20.1428C43.6698 20.1428 43.2236 20.1428 42.7939 20.1428C42.7409 20.14 42.6881 20.1497 42.6398 20.1711C42.5914 20.1924 42.5491 20.2248 42.5163 20.2655C41.0003 21.9868 39.4821 23.708 37.9616 25.4293L36.3983 27.2076L36.1537 27.4625C36.1008 27.3947 36.0644 27.3431 36.0281 27.2915C34.3711 24.9613 32.7217 22.6258 31.0801 20.2849C31.052 20.2383 31.0111 20.2003 30.962 20.1753C30.913 20.1502 30.8577 20.1389 30.8025 20.1428H25.015C27.6328 23.8672 30.2274 27.5658 32.822 31.2514C32.7724 31.3128 32.7328 31.3644 32.6898 31.4096L26.9122 37.9741L25.177 39.946C25.134 39.9944 25.0944 40.0493 25.0547 40.1009L25.0712 40.1525H25.2629C25.7124 40.1525 26.1653 40.1525 26.6148 40.1525C26.6653 40.1537 26.7153 40.1435 26.7612 40.1228C26.807 40.1021 26.8474 40.0714 26.8792 40.0331C27.8553 38.9186 28.8337 37.8062 29.8142 36.696L33.45 32.5876C33.5029 32.5263 33.5591 32.4714 33.6252 32.4036C33.6847 32.4843 33.7376 32.5521 33.7871 32.6231L38.9764 40.0073C38.9993 40.0526 39.0353 40.0905 39.0799 40.1163C39.1245 40.1421 39.1758 40.1547 39.2276 40.1525H43.4682H44.7903C44.8531 40.1525 44.9159 40.1525 45.015 40.1525C42.3113 36.2797 39.6198 32.4359 36.9403 28.6211ZM42.4204 38.8777H40.2191C39.8886 38.8777 39.8886 38.8777 39.7068 38.6131L30.7496 26.1006C29.6743 24.5945 28.6023 23.0959 27.5336 21.6048L27.4345 21.4564L27.5931 21.4338C28.3665 21.4338 29.1367 21.4338 29.9068 21.4338C29.9776 21.4283 30.0486 21.4424 30.1117 21.4743C30.1748 21.5062 30.2275 21.5548 30.2637 21.6145C32.2293 24.375 34.1959 27.129 36.1636 29.8766C38.2591 32.807 40.3524 35.7386 42.4436 38.6712L42.5791 38.8648C42.513 38.8616 42.4667 38.8777 42.4204 38.8777Z" fill="white"/>
</g>
</g>
<defs>
<filter id="filter0_d_1_139" x="0.870026" y="0" width="68.29" height="68.2856" filterUnits="userSpaceOnUse" color-interpolation-filters="sRGB">
<feFlood flood-opacity="0" result="BackgroundImageFix"/>
<feColorMatrix in="SourceAlpha" type="matrix" values="0 0 0 0 0 0 0 0 0 0 0 0 0 0 0 0 0 0 127 0" result="hardAlpha"/>
<feOffset dy="4"/>
<feGaussianBlur stdDeviation="7"/>
<feComposite in2="hardAlpha" operator="out"/>
<feColorMatrix type="matrix" values="0 0 0 0 0 0 0 0 0 0 0 0 0 0 0 0 0 0 0.08 0"/>
<feBlend mode="normal" in2="BackgroundImageFix" result="effect1_dropShadow_1_139"/>
<feBlend mode="normal" in="SourceGraphic" in2="effect1_dropShadow_1_139" result="shape"/>
</filter>
<clipPath id="clip0_1_139">
<rect width="20" height="20" fill="white" transform="translate(25.015 20.1428)"/>
</clipPath>
</defs>
</svg>
